<svg width="379" height="409" viewBox="0 0 379 409" fill="none" xmlns="http://www.w3.org/2000/svg">
<path d="M137.913 43.6364C53.0218 43.6364 -15.2415 112.145 -15.2415 196.364C-15.2415 257.455 20.4217 309.6 72.2755 334.036V436.364H225.43V370.909H247.31C271.596 370.909 291.068 351.491 291.068 327.273V261.818H323.887C333.076 261.818 338.327 250.909 333.076 244.145L291.068 188.945C286.911 108 220.398 43.6364 137.913 43.6364ZM137.913 0C238.339 0 321.48 74.6182 333.514 172.364L367.646 218.182H368.302L368.739 218.836C380.773 235.418 382.305 257.236 372.897 275.345C365.02 290.4 351.017 300.873 334.827 304.145V327.273C334.827 367.636 306.821 401.891 269.189 411.709V480H28.517V360C-26.1811 323.564 -59 263.127 -59 196.364C-59 87.9273 29.3922 0 137.913 0ZM43.1761 181.091L86.0595 192.218L54.5534 224.073C46.8956 231.491 46.8956 244.145 54.5534 251.782C62.2111 259.418 74.901 259.418 82.34 251.782L114.065 220.364L125.442 263.127C128.068 273.818 138.788 279.709 148.853 277.091C159.793 274.255 165.919 263.564 163.293 252.873L151.697 210.109L194.581 221.673C205.301 224.291 216.022 218.182 218.867 207.273C221.492 197.455 215.366 186.545 204.864 183.927L161.981 172.582L193.487 140.945C201.144 133.527 201.144 121.091 193.487 113.236C185.829 105.6 173.139 105.6 165.7 113.236L133.756 144.655L122.598 101.891C119.972 91.2 109.033 85.0909 98.7495 87.9273C88.0286 90.7636 81.9024 101.455 84.7467 111.927L96.3427 154.909L53.2406 143.345C42.7385 140.509 32.0177 146.618 29.1734 157.309C26.3291 167.564 32.4553 178.473 43.1761 181.091Z" fill="white" fill-opacity="0.3"/>
</svg>
